HIERARCHY
ROOT Hips
{
  OFFSET -257.012 47.8715 -239.378
  CHANNELS 6 Xposition Yposition Zposition Zrotation Xrotation Yrotation
  JOINT ToSpine
  {
    OFFSET -0.0105055 1.38907 -7.13956
    CHANNELS 3 Zrotation Xrotation Yrotation
    JOINT Spine
    {
      OFFSET 0.0105055 10 1
      CHANNELS 3 Zrotation Xrotation Yrotation
      JOINT Spine1
      {
        OFFSET 0 12 1.60637
        CHANNELS 3 Zrotation Xrotation Yrotation
        JOINT Neck
        {
          OFFSET 0 27 2.26658
          CHANNELS 3 Zrotation Xrotation Yrotation
          JOINT Head
          {
            OFFSET 0 9 2.12705
            CHANNELS 3 Zrotation Xrotation Yrotation
            End Site
            {
              OFFSET 0 11 2
            }
          }
        }
        JOINT LeftShoulder
        {
          OFFSET 8 19.6109 2.86452
          CHANNELS 3 Zrotation Xrotation Yrotation
          JOINT LeftArm
          {
            OFFSET 12 1 0.681055
            CHANNELS 3 Zrotation Xrotation Yrotation
            JOINT LeftForeArm
            {
              OFFSET 19 0 -1.52608
              CHANNELS 3 Zrotation Xrotation Yrotation
              JOINT LeftHand
              {
                OFFSET 23 0 0
                CHANNELS 3 Zrotation Xrotation Yrotation
                End Site
                {
                  OFFSET 10 0 0
                }
              }
            }
          }
        }
        JOINT RightShoulder
        {
          OFFSET -8 19.6109 2.86452
          CHANNELS 3 Zrotation Xrotation Yrotation
          JOINT RightArm
          {
            OFFSET -12 1 0.681055
            CHANNELS 3 Zrotation Xrotation Yrotation
            JOINT RightForeArm
            {
              OFFSET -19 0 -1.52608
              CHANNELS 3 Zrotation Xrotation Yrotation
              JOINT RightHand
              {
                OFFSET -23 0 0
                CHANNELS 3 Zrotation Xrotation Yrotation
                End Site
                {
                  OFFSET -10 0 0
                }
              }
            }
          }
        }
      }
    }
  }
  JOINT LeftUpLeg
  {
    OFFSET 9 -7.17245 0
    CHANNELS 3 Zrotation Xrotation Yrotation
    JOINT LeftLeg
    {
      OFFSET 0 -44.1113 0
      CHANNELS 3 Zrotation Xrotation Yrotation
      JOINT LeftFoot
      {
        OFFSET 0 -36.1829 0
        CHANNELS 3 Zrotation Xrotation Yrotation
        JOINT LeftToeBase
        {
          OFFSET 0 -4.84184 13
          CHANNELS 3 Zrotation Xrotation Yrotation
          End Site
          {
            OFFSET 0 1 6
          }
        }
      }
    }
  }
  JOINT RightUpLeg
  {
    OFFSET -9 -7.17245 0
    CHANNELS 3 Zrotation Xrotation Yrotation
    JOINT RightLeg
    {
      OFFSET 0 -44.0551 0
      CHANNELS 3 Zrotation Xrotation Yrotation
      JOINT RightFoot
      {
        OFFSET 0 -36.1469 0
        CHANNELS 3 Zrotation Xrotation Yrotation
        JOINT RightToeBase
        {
          OFFSET 0 -4.92256 13
          CHANNELS 3 Zrotation Xrotation Yrotation
          End Site
          {
            OFFSET 0 1 6
          }
        }
      }
    }
  }
}
MOTION
Frames:	12
Frame Time:	0.0333333
-177.175 84.9983 -148.494 -8.98019 20.8816 52.011 0 0 0 -2.17209 17.1523 -1.40245 -14.4698 -4.77147 0.292818 21.8925 -19.4258 -1.51067 -4.38748 -0.434197 2.33633 -27.2274 4.33759 -9.45399 -15.7156 17.9742 -31.8489 36.6754 4.75883 -83.6434 -2.24804 0.0764569 -3.89531 43.8818 8.82665 13.8928 23.0746 7.76249 -19.1002 -25.6954 15.592 60.8119 -0.738414 -0.0551921 8.54904 -9.82472 -37.0546 15.5775 7.81359e-007 60.1981 -17.5027 29.7495 -34.8418 9.52836 1.73752 -14.6984 -6.64916 -9.51071 -17.9085 -8.34099 180 86.7272 163.151 -35.587 -14.2276 -4.58736 4.86881 -18.9406 -5.69719 
-171.93 84.4745 -143.201 -9.8252 18.026 54.1903 0 0 0 -2.51959 19.3264 -3.4247 -10.7941 -6.02993 -2.48585 21.3024 -19.2797 -0.021321 -3.55672 -1.29869 3.47204 -24.2735 4.7122 -11.8583 -15.5953 10.6993 -51.9038 42.2479 6.98885 -82.3698 -3.05613 0.177825 -6.65857 39.4327 6.31081 10.2626 36.3967 9.26425 -32.8356 -31.4511 23.4456 56.955 -1.2228 -0.0817863 7.65268 -4.79511 -28.899 18.7129 -1.31484e-006 59.4194 -23.4777 31.078 -39.1648 11.2981 1.82789 -13.1928 -7.49327 -5.16617 -31.2798 -0.445299 180 76.3102 162.036 -35.3156 -22.4359 -7.22512 4.24114 -15.9741 -3.63236 
-166.385 83.6392 -137.899 -10.5857 15.4747 57.1814 0 0 0 -4.1048 21.8221 -6.90638 -4.10147 -7.68546 -7.38621 21.3338 -19.5507 3.63451 -3.33532 -1.29476 6.78212 -14.4978 3.92094 -14.6735 -18.3771 1.94097 -65.342 42.1822 5.91581 -83.5112 -1.3833 0.0782107 -6.47171 31.615 3.32335 5.30606 46.5821 13.6849 -44.8887 -40.3965 26.528 62.3068 0.158066 0.0105095 7.60778 -1.41245 -20.2299 19.4083 1.28276e-007 55.9797 -26.7823 36.3562 -40.9682 13.9865 1.9046 -16.9501 -8.19296 -1.52913 -44.988 6.20568 -180 73.8768 158.726 -36.5498 -26.2426 -8.80353 4.79035 -18.5884 -5.6657 
-159.492 83.5023 -132.036 -13.4306 13.2016 58.5642 0 0 0 -2.79775 21.3712 -11.1379 1.27709 -7.57632 -12.0892 21.5017 -22.9286 9.23972 -2.25555 1.61844 11.0405 -3.38249 2.15328 -15.1712 -19.556 -9.33409 -72.2491 41.6548 4.68902 -84.7494 0.9339 -0.0430282 -5.2758 22.7953 1.52047 1.71754 52.2172 18.6049 -53.0405 -43.9987 26.4693 65.223 -0.824914 -0.0592726 8.21948 2.6506 -11.5782 20.3457 -1.06499e-006 48.7933 -30.2317 31.981 -42.0097 12.558 2.06668 -17.3954 -10.0404 5.37705 -58.3011 15.2708 180 79.6032 156.941 -35.4011 -27.697 -8.99724 4.92513 -19.0239 -4.93114 
-151.139 84.2912 -125.87 -16.0832 10.6907 56.9573 0 0 0 1.89465 19.7551 -15.0356 3.28033 -5.75962 -15.4131 23.3853 -30.4448 16.0536 -1.99562 7.99206 15.3654 9.04081 0.0833716 -11.8783 -24.0499 -17.3308 -73.568 38.7477 3.61024 -85.5135 2.36293 -0.149464 -7.23767 17.333 1.27963 1.82469 51.5643 16.9244 -59.2443 -44.7601 23.1654 68.362 0.795239 0.0629164 9.04708 4.7686 0.0122212 21.3842 9.65923e-007 34.6767 -31.5504 23.366 -34.3985 7.3246 1.86466 -23.7217 -7.57212 16.7164 -66.2363 26.162 2.75208e-005 87.6792 -20.2431 -35.4293 -25.6649 -8.32315 4.80946 -18.855 -6.54509 
-141.483 85.6703 -119.033 -18.6428 8.7914 52.8103 0 0 0 6.31627 15.5988 -16.0355 4.93939 -2.01034 -15.8004 22.2889 -38.2355 21.3183 -1.83679 12.9235 17.7586 15.2975 -0.636965 -9.37475 -27.3925 -19.7081 -71.7794 39.3803 2.79185 -86.6041 2.46766 -0.159489 -7.39481 14.3299 1.57371 3.89413 49.9875 10.3567 -64.8665 -40.2449 16.2106 71.746 -0.527137 -0.0424088 9.19916 3.95856 11.0734 10.0576 -2.71517 17.8372 -15.4362 11.16 -14.2703 1.40137 1.29343 -36.9687 -13.3978 27.6453 -67.7347 33.2199 9.13341e-007 70.8521 -13.4059 -31.5164 -20.5427 -5.85462 4.30587 -16.5484 -6.62622 
-130.869 87.3906 -111.267 -19.2839 7.67837 47.9732 0 0 0 9.88556 12.5509 -15.697 4.67987 0.157889 -14.6111 19.5032 -41.2136 23.6827 -2.11065 14.942 19.2308 15.0534 -0.596158 -9.09825 -28.2435 -15.4268 -69.974 40.2328 1.28451 -88.4822 1.72069 -0.0926381 -6.16295 7.94809 3.84971 20.9847 58.0001 -5.20903 -70.0916 -32.9728 12.4222 71.655 -2.01014 -0.179648 10.213 0.668494 19.2476 7.22158 0.112675 9.77626 -12.1805 12.8393 9.95175 -1.12251 1.84711 -25.4668 -5.8571 27.4115 -64.0506 25.3271 9.5458e-009 54.931 0.777236 -27.8928 -15.7423 -3.93259 4.54482 -17.7849 -7.3964 
-121.9 87.9141 -104.049 -18.5452 8.09864 45.1273 0 0 0 9.67203 11.3408 -14.2406 6.32718 0.459185 -13.3343 13.2657 -37.9552 22.2069 -1.1301 11.7424 18.8904 9.06623 0.0717691 -10.3224 -30.0021 -4.41257 -67.7 44.9938 0.433616 -89.5663 0.303654 -0.0177987 -6.70908 13.4513 5.16388 21.373 55.2909 -6.38788 -67.5997 -27.8963 7.71568 75.7694 -1.45721 -0.12664 9.93325 -1.26241 19.6327 7.76569 -1.63433 19.7726 -18.5665 16.5097 8.24567 -1.1983 1.25893 -17.5212 -0.827901 23.7709 -60.9135 13.552 6.10631e-007 48.0825 6.36955 -27.2515 -15.037 -3.6648 5.15538 -20.2709 -5.96623 
-114.274 88.1458 -97.5135 -15.75 8.25213 44.0887 0 0 0 6.66007 13.7189 -12.9437 9.61078 -0.0706972 -13.0712 10.9126 -37.7307 22.6297 -1.34255 11.1247 19.5025 -2.87634 1.75102 -12.34 -28.7024 8.19687 -59.4437 49.864 -1.35122 -91.139 -0.431579 0.0207415 -5.50297 20.7869 6.02582 18.3908 49.117 -4.74772 -56.1698 -23.7289 5.26182 78.2155 -2.84853 -0.249265 9.99999 -2.2785 14.966 14.0128 -1.08675e-006 41.6986 -23.0056 17.3989 5.6529 -0.865646 1.76975 -24.9015 -2.2465 16.392 -55.3549 1.94077 2.58896e-008 47.3348 0.855171 -23.8721 -15.888 -3.37927 4.63244 -17.7751 -4.9542 
-106.229 89.3306 -90.3134 -13.8899 7.21362 42.3824 0 0 0 6.83604 16.2193 -10.9673 9.64703 -1.2816 -11.6533 8.80897 -34.7706 21.2721 -1.79197 7.08545 19.0686 -15.0567 3.49119 -12.335 -30.7558 20.1728 -44.2021 53.4537 -2.79757 -92.0719 -1.94278 0.106649 -6.2836 27.1479 6.17533 14.9146 42.185 -5.56611 -40.3485 -24.0022 3.91193 81.2891 -3.37188 -0.227596 7.72079 0.0843324 7.57758 16.5256 -4.75278e-007 63.534 -12.5049 19.0878 8.46789 -1.42623 1.79211 -24.5763 -4.09645 11.2546 -46.4764 -7.98337 1.97087e-008 47.5284 2.38169 -29.3548 -10.5977 -2.78319 3.49744 -12.678 -8.22614 
-98.4931 88.6174 -83.2972 -14.2349 6.7518 38.8611 0 0 0 7.28763 17.1754 -8.09244 10.1149 -4.24888 -8.51925 2.20444 -30.1194 18.8124 -0.368452 2.09342 17.1322 -25.0436 4.32502 -10.2789 -37.4532 27.1486 -16.6324 50.6308 -5.50988 -94.5046 -3.46533 0.165044 -5.45191 26.9831 5.73824 13.7102 40.4044 -8.393 -22.415 -19.5738 2.23292 83.7467 -2.45027 -0.152579 7.12536 4.73926 -3.14198 18.8747 -3.492e-007 83.9284 -0.710438 21.1819 0.319807 -0.0597982 1.71688 -24.0586 -1.96151 11.4407 -40.7558 -8.14487 -9.46485e-008 53.8825 3.4385 -31.3498 -20.8889 -5.92225 4.3196 -16.4024 -4.71864 
-91.5368 87.742 -77.2378 -15.2539 6.98035 31.5369 0 0 0 10.7955 18.3706 -4.08415 4.33461 -5.58344 -3.03132 0.502213 -28.1742 17.1574 -1.44368 0.554672 15.9733 -24.9364 3.71248 -8.37926 -47.4624 26.207 16.3557 52.3492 -12.7168 -99.6389 -5.01428 0.235603 -5.37687 27.197 6.09587 14.6556 39.9364 -11.4429 -3.12629 -20.2553 0.494004 88.6616 -3.62642 -0.243859 7.69159 11.6738 -17.4843 21.6298 180 79.1132 -178.622 28.4443 -7.59687 1.92807 1.73988 -24.0951 -2.7613 14.1687 -34.3143 -2.90561 4.61511e-008 55.5949 4.44384 -33.2402 -27.2396 -8.27316 4.42804 -16.7836 -4.01403 
